Format                           : Matroska
File size                        : 4.31 GiB
Duration                         : 1h 53mn
Overall bit rate                 : 5 440 Kbps

Video
Format settings, ReFrames        : 7 frames
Codec ID                         : V_MPEG4/ISO/AVC
Nominal bit rate                 : 5 164 Kbps
Width                            : 984 pixels
Height                           : 720 pixels
Display aspect ratio             : 4:3
Frame rate                       : 23.976 fps

Audio #1 English
ID                               : 2
Format                           : AC-3
Codec ID                         : A_AC3
Duration                         : 1h 53mn
Bit rate mode                    : Constant
Bit rate                         : 192 Kbps
Channel(s)                       : 1 channel
Channel positions                : Front: C
Sampling rate                    : 48.0 KHz
Bit depth                        : 16 bits
Stream size                      : 156 MiB (4%)

Audio #2 Commentary
ID                               : 3
Format                           : AAC
Format/Info                      : Advanced Audio Codec
Format settings, PS              : Yes
Codec ID                         : A_AAC
Duration                         : 1h 53mn
Channel(s)                       : 2 channels
Channel positions                : Front: L R
Sampling rate                    : 48.0 KHz
Title                            : Commentary
Language                         : English
Stream size                      : 156 MiB (4%)


Screens:

 
http://shareimage.ro/images/j1bfe30vsqicw24x4c5.jpg

 
http://shareimage.ro/images/ahcsy06xi7z24qtwvf.jpg

 
http://shareimage.ro/images/guukucm3c3p7aweyeb.jpg

 
http://shareimage.ro/images/96y6drzfqvuok8vg115.jpg

 
http://shareimage.ro/images/2s6ljvqba1q78p1dvs8m.jpg

 
http://shareimage.ro/images/wq4e87zc6xlowwtptsab.jpg

 
http://shareimage.ro/images/gqkrp92kwc6s5gpab2n.jpg